<svg width="87" height="22" viewBox="0 0 87 22" fill="none" xmlns="http://www.w3.org/2000/svg">
<g opacity="0.25">
<path d="M29.4385 3.75848C32.216 3.75848 33.8229 5.36195 33.8229 7.51971C33.8229 8.96481 32.9103 10.1526 31.7597 10.5287C33.0293 10.8256 34.2594 11.9936 34.2594 13.8148C34.2594 16.0882 32.5483 17.7601 29.9346 17.7933L29.8551 17.7938H24.1812V3.75848H29.4385ZM29.2004 11.954H27.2364V15.2401H29.2004C30.4106 15.2401 31.1446 14.6066 31.1446 13.5971C31.1446 12.6368 30.4447 11.9675 29.2372 11.9542L29.2004 11.954ZM28.9028 6.35175H27.2364V9.38053H28.9425C30.0337 9.38053 30.7479 8.80644 30.7479 7.85624C30.7479 6.95473 30.1451 6.36366 28.9396 6.35193L28.9028 6.35175Z" fill="white"/>
<path d="M36.8055 6.72629C37.7955 6.72629 38.5875 5.93431 38.5875 4.96415C38.5875 3.99398 37.7955 3.202 36.8055 3.202C35.8551 3.202 35.0632 3.99398 35.0632 4.96415C35.0632 5.93431 35.8551 6.72629 36.8055 6.72629Z" fill="white"/>
<path d="M38.3401 17.7938V7.96289H35.3105V17.7938H38.3401Z" fill="white"/>
<path d="M42.8897 17.7938V13.4907C42.8897 11.5276 43.9766 10.8137 45.1821 10.8137C45.4785 10.8137 45.7947 10.8335 46.1307 10.9128V7.93837C45.933 7.87889 45.6366 7.83923 45.3402 7.83923C44.5497 7.83923 43.3047 8.1565 42.7909 9.26697V7.93837H39.8859V17.7938H42.8897Z" fill="white"/>
<path d="M56.6863 3.44933L56.6864 16.0415L56.6869 16.1569L56.6881 16.2694L56.6892 16.3427L56.6913 16.4501L56.6939 16.5544L56.6959 16.622L56.7004 16.7529L56.7055 16.8776L56.711 16.9958L56.7184 17.1342L56.7278 17.2858L56.7387 17.4417L56.749 17.5739L56.7654 17.7618H53.8815L53.8741 17.7149L53.8608 17.6191L53.8522 17.5509L53.8433 17.4746L53.8345 17.3912L53.8303 17.3472L53.8222 17.2556L53.8185 17.2083L53.8135 17.1358L53.8106 17.0867L53.808 17.0371L53.805 16.9623L53.8031 16.8874C53.803 16.8791 53.8028 16.8708 53.8027 16.8625L53.8024 16.8129C53.3481 17.4851 52.3605 17.9793 51.1753 17.9793C48.41 17.9793 46.3162 15.8443 46.3162 12.8197C46.3162 9.8939 48.2914 7.69958 51.0766 7.69958C52.3694 7.69958 53.1001 8.07465 53.476 8.41865L53.5046 8.44539C53.5324 8.47205 53.5582 8.49845 53.5819 8.52442L53.605 8.55022C53.6124 8.55877 53.6197 8.56726 53.6267 8.57569L53.6471 8.60077C53.6537 8.60907 53.6601 8.61729 53.6662 8.62543L53.6841 8.64962L53.7008 8.67331L53.7162 8.69644L53.7234 8.70778V3.44933H56.6863ZM51.5506 10.4079C50.3852 10.4079 49.3383 11.1986 49.3383 12.8394C49.3383 14.4605 50.3852 15.2907 51.5506 15.2907C52.716 15.2907 53.7629 14.4605 53.7629 12.8394C53.7629 11.1986 52.716 10.4079 51.5506 10.4079Z" fill="white"/>
<path d="M62.4129 7.65373C65.4591 7.65373 67.3382 9.53736 67.3382 12.7098C67.3382 13.1262 67.2987 13.5822 67.2789 13.6417H60.4348C60.4942 14.752 61.503 15.5452 62.67 15.5452C63.758 15.5452 64.3712 15.0296 64.6481 14.2564L67.1602 14.9702C66.6855 16.6753 65.1228 18.1029 62.6305 18.1029C59.9205 18.1029 57.5073 16.1598 57.5073 12.8486C57.5073 9.67616 59.8612 7.65373 62.4129 7.65373ZM62.4524 10.0331C61.1865 10.0331 60.5535 10.965 60.4942 11.6986H64.4305C64.3909 10.9451 63.8766 10.0331 62.4524 10.0331Z" fill="white"/>
<path d="M71.7895 21.5654L77.8492 7.96289H74.6609L72.4826 13.222L70.0864 7.96289H66.7199L70.8588 16.4645L68.621 21.5654H71.7895Z" fill="white"/>
<path d="M82.0746 7.65373C85.1208 7.65373 87 9.53736 87 12.7098C87 13.1262 86.9604 13.5822 86.9406 13.6417H80.0966C80.1559 14.752 81.1647 15.5452 82.3318 15.5452C83.4197 15.5452 84.0329 15.0296 84.3098 14.2564L86.8219 14.9702C86.3472 16.6753 84.7846 18.1029 82.2922 18.1029C79.5823 18.1029 77.1691 16.1598 77.1691 12.8486C77.1691 9.67616 79.5229 7.65373 82.0746 7.65373ZM82.1142 10.0331C80.8482 10.0331 80.2153 10.965 80.1559 11.6986H84.0922C84.0527 10.9451 83.5384 10.0331 82.1142 10.0331Z" fill="white"/>
<path fill-rule="evenodd" clip-rule="evenodd" d="M12.4404 10.8005L12.4404 10.8003L12.4373 10.7991C12.3948 10.7808 12.3518 10.7637 12.308 10.748L7.87896 8.99975L7.8786 9.00038C7.75735 8.94683 7.62345 8.91651 7.48222 8.91651C6.94217 8.91651 6.50434 9.35136 6.50434 9.88775C6.50434 10.1095 6.58001 10.3132 6.70594 10.4767L6.70535 10.4773L6.713 10.486C6.73538 10.5144 6.75899 10.5418 6.78438 10.5675L9.9598 14.191L9.95989 14.1909C10.3558 14.6345 10.9335 14.9144 11.5772 14.9144C12.7707 14.9144 13.7381 13.9535 13.7381 12.7681C13.7381 11.8877 13.2041 11.1314 12.4404 10.8005ZM10.9815 3.49492C11.9858 3.18104 13.0679 3.69943 13.3984 4.65264C13.7291 5.6058 13.183 6.63287 12.1787 6.9468C11.1746 7.26054 10.0925 6.74215 9.76181 5.78903C9.4313 4.83578 9.97738 3.80867 10.9815 3.49492ZM17.9326 4.65866C17.7865 4.45329 17.5742 4.32176 17.3437 4.26383L17.3435 4.26044L16.4777 4.03393C16.4651 3.99344 16.4569 3.95246 16.4433 3.91202C15.5443 1.25888 12.6018 -0.183844 9.87076 0.689632C8.45601 1.14203 7.38015 2.12928 6.79233 3.34278L5.22784 5.82421L1.51449 4.3617L1.51204 4.36441C1.27815 4.26962 1.01136 4.24879 0.751839 4.33175C0.178292 4.51529 -0.133687 5.11566 0.0551006 5.67302C0.0827847 5.75445 0.122015 5.82864 0.166428 5.89841L0.159973 5.90582L4.0342 11.025C4.0377 11.0296 4.03942 11.0347 4.04292 11.0392C4.04638 11.044 4.05093 11.0477 4.05461 11.0525L6.82638 14.9305C8.03752 17.0896 10.6578 18.389 13.1873 17.58C15.9181 16.7067 17.4033 13.8479 16.5042 11.1947C16.2243 10.3689 15.7462 9.66072 15.1383 9.10281C15.9047 8.37221 16.4247 7.42951 16.619 6.40652L17.4565 6.16505L17.4559 6.15592C17.5302 6.12795 17.6028 6.09411 17.6711 6.04824C18.1382 5.73466 18.2554 5.11259 17.9326 4.65866Z" fill="white"/>
</g>
</svg>
