<svg width="27" height="20" viewBox="0 0 27 20" fill="none" xmlns="http://www.w3.org/2000/svg">
<mask id="mask0_1_134" style="mask-type:alpha" maskUnits="userSpaceOnUse" x="0" y="0" width="27" height="20">
<path d="M24.4286 0.5H2.57143C1.15127 0.5 0 1.63421 0 3.03333V16.9667C0 18.3658 1.15127 19.5 2.57143 19.5H24.4286C25.8487 19.5 27 18.3658 27 16.9667V3.03333C27 1.63421 25.8487 0.5 24.4286 0.5Z" fill="white"/>
</mask>
<g mask="url(#mask0_1_134)">
<path d="M24.4286 0.5H2.57143C1.15127 0.5 0 1.63421 0 3.03333V16.9667C0 18.3658 1.15127 19.5 2.57143 19.5H24.4286C25.8487 19.5 27 18.3658 27 16.9667V3.03333C27 1.63421 25.8487 0.5 24.4286 0.5Z" fill="white"/>
<path fill-rule="evenodd" clip-rule="evenodd" d="M0 0.5H6.42857V19.5H0V0.5ZM20.5714 0.5H27V19.5H20.5714V0.5ZM13.5 5.56667L12.2143 8.1L10.2857 6.83333V9.36667L9 10.6333L11.5714 11.9H12.8571V14.4333H14.1429V11.9H15.4286L18 10.6333L16.7143 9.36667V6.83333L14.6571 8.1L13.5 5.56667Z" fill="#FF0000"/>
<path d="M24.4286 1.13333H2.57145C1.50633 1.13333 0.642883 1.98399 0.642883 3.03333V16.9667C0.642883 18.016 1.50633 18.8667 2.57145 18.8667H24.4286C25.4937 18.8667 26.3572 18.016 26.3572 16.9667V3.03333C26.3572 1.98399 25.4937 1.13333 24.4286 1.13333Z" stroke="black" stroke-opacity="0.1"/>
</g>
</svg>
