<svg width="130" height="83" viewBox="0 0 130 83" fill="none" xmlns="http://www.w3.org/2000/svg">
<path d="M37.1165 3.85385L2.29034 23.5161L38.3515 7.65156C41.9152 6.08376 45.9723 6.07826 49.5402 7.63638L85.9032 23.5161L50.7807 3.83231C46.5347 1.45275 41.3549 1.46092 37.1165 3.85385Z" fill="#FC5103" stroke="#FC5103" stroke-width="3.48387" stroke-linejoin="round"/>
<path d="M13 5C13 3.89543 13.8954 3 15 3H18C19.1046 3 20 3.89543 20 5V16H13V5Z" fill="#FC5103"/>
<path d="M108 8C108 6.89543 108.895 6 110 6H113C114.105 6 115 6.89543 115 8V19H108V8Z" fill="#FC5103"/>
<path d="M127.71 27L92.7871 7.34496C88.5297 4.94885 83.3286 4.95707 79.0788 7.36662L67.6129 13.8676L70.0278 15.7001L80.3159 11.1547C83.891 9.5752 87.9651 9.56966 91.5445 11.1394L127.71 27Z" fill="#FC5103" stroke="#FC5103" stroke-width="3.48387" stroke-linejoin="round"/>
<path d="M19.1294 55.3837C19.1294 47.9444 8.14444 49.6855 8.14444 45.8234C8.14444 44.4305 9.1258 43.7657 10.4237 43.7973C11.8799 43.829 12.893 44.6837 12.9879 46.1083H18.8445C18.6229 41.8662 15.3622 39.4603 10.5187 39.4603C5.86515 39.4603 2.41455 41.8029 2.41455 46.0133C2.35124 53.8958 13.4628 51.6799 13.4628 55.7953C13.4628 57.0932 12.4498 57.8846 10.8669 57.8846C9.3474 57.8846 8.27107 57.0615 8.11278 55.3521H2.35124C2.50952 59.8473 6.24503 62.2216 11.0252 62.2216C16.2169 62.2216 19.1294 59.1192 19.1294 55.3837ZM22.3658 53.0411C22.3658 59.1825 26.3862 62.2216 31.5463 62.2216C36.6747 62.2216 40.98 59.1825 40.98 53.0411V39.7769H35.5667V53.0728C35.5667 55.7003 34.2054 57.2198 31.6412 57.2198C29.077 57.2198 27.7791 55.7003 27.7791 53.0728V39.7769H22.3658V53.0411ZM44.7813 62H50.1946V48.6408L55.1964 62H59.565L64.5352 48.6725V62H69.9485V39.7769H63.5855L57.4124 55.1621L51.176 39.7769H44.7813V62ZM73.8413 62H79.2546V48.6408L84.2564 62H88.625L93.5952 48.6725V62H99.0085V39.7769H92.6455L86.4724 55.1621L80.236 39.7769H73.8413V62ZM102.901 62H108.315V39.7769H102.901V62ZM111.035 44.1139H116.923V62H122.336V44.1139H128.224V39.7769H111.035V44.1139Z" fill="white"/>
<path d="M10.8067 67.74C10.5888 67.3385 10.2733 67.0345 9.86027 66.828C9.45874 66.61 8.98264 66.501 8.43198 66.501C7.47978 66.501 6.71688 66.8165 6.14327 67.4475C5.56966 68.067 5.28285 68.8987 5.28285 69.9427C5.28285 71.0555 5.58113 71.9274 6.17768 72.5583C6.78571 73.1778 7.61745 73.4876 8.67289 73.4876C9.39564 73.4876 10.0037 73.304 10.497 72.9369C11.0018 72.5698 11.3689 72.0421 11.5983 71.3538H7.8641V69.1855H14.2656V71.9216C14.0476 72.6558 13.6748 73.3384 13.1471 73.9694C12.6308 74.6004 11.9712 75.1109 11.1681 75.501C10.365 75.891 9.45874 76.086 8.44918 76.086C7.25607 76.086 6.18916 75.8279 5.24843 75.3117C4.31918 74.7839 3.5907 74.0555 3.06298 73.1262C2.54673 72.197 2.2886 71.1358 2.2886 69.9427C2.2886 68.7496 2.54673 67.6884 3.06298 66.7591C3.5907 65.8184 4.31918 65.0899 5.24843 64.5737C6.17768 64.0459 7.23886 63.7821 8.43198 63.7821C9.87748 63.7821 11.0935 64.132 12.0801 64.8318C13.0782 65.5316 13.7379 66.501 14.0591 67.74H10.8067ZM23.4156 73.8662H18.907L18.1843 76H15.104L19.4749 63.9198H22.8821L27.2531 76H24.1383L23.4156 73.8662ZM22.6584 71.5947L21.1613 67.1721L19.6814 71.5947H22.6584ZM34.7439 76L32.2315 71.4398H31.526V76H28.5833V63.9198H33.5221C34.4743 63.9198 35.2831 64.0861 35.9485 64.4188C36.6254 64.7515 37.1301 65.2104 37.4628 65.7955C37.7955 66.3691 37.9619 67.0115 37.9619 67.7228C37.9619 68.5258 37.7324 69.2429 37.2735 69.8738C36.8261 70.5048 36.1607 70.9522 35.2774 71.2161L38.0651 76H34.7439ZM31.526 69.3576H33.35C33.8892 69.3576 34.2908 69.2257 34.5546 68.9618C34.83 68.6979 34.9676 68.3251 34.9676 67.8432C34.9676 67.3844 34.83 67.023 34.5546 66.7591C34.2908 66.4953 33.8892 66.3633 33.35 66.3633H31.526V69.3576ZM47.3291 73.8662H42.8205L42.0978 76H39.0175L43.3884 63.9198H46.7957L51.1666 76H48.0519L47.3291 73.8662ZM46.572 71.5947L45.0748 67.1721L43.5949 71.5947H46.572ZM60.5159 67.74C60.298 67.3385 59.9825 67.0345 59.5695 66.828C59.168 66.61 58.6919 66.501 58.1412 66.501C57.189 66.501 56.4261 66.8165 55.8525 67.4475C55.2789 68.067 54.9921 68.8987 54.9921 69.9427C54.9921 71.0555 55.2904 71.9274 55.8869 72.5583C56.4949 73.1778 57.3267 73.4876 58.3821 73.4876C59.1049 73.4876 59.7129 73.304 60.2062 72.9369C60.711 72.5698 61.0781 72.0421 61.3075 71.3538H57.5733V69.1855H63.9748V71.9216C63.7569 72.6558 63.384 73.3384 62.8563 73.9694C62.34 74.6004 61.6804 75.1109 60.8773 75.501C60.0743 75.891 59.168 76.086 58.1584 76.086C56.9653 76.086 55.8984 75.8279 54.9577 75.3117C54.0284 74.7839 53.2999 74.0555 52.7722 73.1262C52.256 72.197 51.9978 71.1358 51.9978 69.9427C51.9978 68.7496 52.256 67.6884 52.7722 66.7591C53.2999 65.8184 54.0284 65.0899 54.9577 64.5737C55.8869 64.0459 56.9481 63.7821 58.1412 63.7821C59.5867 63.7821 60.8028 64.132 61.7894 64.8318C62.7875 65.5316 63.4471 66.501 63.7683 67.74H60.5159ZM68.5474 66.2773V68.7209H72.4881V70.9924H68.5474V73.6425H73.0044V76H65.6048V63.9198H73.0044V66.2773H68.5474ZM83.0872 63.9198C84.3606 63.9198 85.4735 64.1721 86.4256 64.6769C87.3778 65.1817 88.1121 65.893 88.6283 66.8108C89.156 67.7171 89.4199 68.7668 89.4199 69.9599C89.4199 71.1415 89.156 72.1912 88.6283 73.109C88.1121 74.0268 87.3721 74.7381 86.4084 75.2428C85.4562 75.7476 84.3492 76 83.0872 76H78.5614V63.9198H83.0872ZM82.8979 73.4532C84.0107 73.4532 84.8769 73.1492 85.4964 72.5411C86.1159 71.9331 86.4256 71.0727 86.4256 69.9599C86.4256 68.8471 86.1159 67.9809 85.4964 67.3614C84.8769 66.7419 84.0107 66.4322 82.8979 66.4322H81.5041V73.4532H82.8979ZM96.7775 76.1205C95.6418 76.1205 94.5978 75.8566 93.6456 75.3289C92.7049 74.8012 91.9535 74.0669 91.3913 73.1262C90.8407 72.174 90.5653 71.1071 90.5653 69.9255C90.5653 68.7438 90.8407 67.6826 91.3913 66.7419C91.9535 65.8012 92.7049 65.067 93.6456 64.5393C94.5978 64.0115 95.6418 63.7477 96.7775 63.7477C97.9133 63.7477 98.9515 64.0115 99.8922 64.5393C100.844 65.067 101.59 65.8012 102.129 66.7419C102.68 67.6826 102.955 68.7438 102.955 69.9255C102.955 71.1071 102.68 72.174 102.129 73.1262C101.579 74.0669 100.833 74.8012 99.8922 75.3289C98.9515 75.8566 97.9133 76.1205 96.7775 76.1205ZM96.7775 73.436C97.7412 73.436 98.5098 73.1147 99.0835 72.4723C99.6685 71.8298 99.9611 70.9809 99.9611 69.9255C99.9611 68.8585 99.6685 68.0096 99.0835 67.3786C98.5098 66.7362 97.7412 66.415 96.7775 66.415C95.8024 66.415 95.0223 66.7304 94.4372 67.3614C93.8636 67.9924 93.5768 68.8471 93.5768 69.9255C93.5768 70.9924 93.8636 71.8471 94.4372 72.4895C95.0223 73.1205 95.8024 73.436 96.7775 73.436ZM110.306 76.1205C109.17 76.1205 108.126 75.8566 107.174 75.3289C106.233 74.8012 105.482 74.0669 104.919 73.1262C104.369 72.174 104.093 71.1071 104.093 69.9255C104.093 68.7438 104.369 67.6826 104.919 66.7419C105.482 65.8012 106.233 65.067 107.174 64.5393C108.126 64.0115 109.17 63.7477 110.306 63.7477C111.441 63.7477 112.48 64.0115 113.42 64.5393C114.372 65.067 115.118 65.8012 115.657 66.7419C116.208 67.6826 116.483 68.7438 116.483 69.9255C116.483 71.1071 116.208 72.174 115.657 73.1262C115.107 74.0669 114.361 74.8012 113.42 75.3289C112.48 75.8566 111.441 76.1205 110.306 76.1205ZM110.306 73.436C111.269 73.436 112.038 73.1147 112.611 72.4723C113.197 71.8298 113.489 70.9809 113.489 69.9255C113.489 68.8585 113.197 68.0096 112.611 67.3786C112.038 66.7362 111.269 66.415 110.306 66.415C109.33 66.415 108.55 66.7304 107.965 67.3614C107.392 67.9924 107.105 68.8471 107.105 69.9255C107.105 70.9924 107.392 71.8471 107.965 72.4895C108.55 73.1205 109.33 73.436 110.306 73.436ZM124.281 76L121.769 71.4398H121.063V76H118.12V63.9198H123.059C124.011 63.9198 124.82 64.0861 125.486 64.4188C126.162 64.7515 126.667 65.2104 127 65.7955C127.333 66.3691 127.499 67.0115 127.499 67.7228C127.499 68.5258 127.27 69.2429 126.811 69.8738C126.363 70.5048 125.698 70.9522 124.814 71.2161L127.602 76H124.281ZM121.063 69.3576H122.887C123.426 69.3576 123.828 69.2257 124.092 68.9618C124.367 68.6979 124.505 68.3251 124.505 67.8432C124.505 67.3844 124.367 67.023 124.092 66.7591C123.828 66.4953 123.426 66.3633 122.887 66.3633H121.063V69.3576Z" fill="white"/>
</svg>
