<svg width="130" height="83" viewBox="0 0 130 83" fill="none" xmlns="http://www.w3.org/2000/svg">
<path d="M37.1165 3.85385L2.29034 23.5161L38.3515 7.65156C41.9152 6.08376 45.9723 6.07826 49.5402 7.63638L85.9032 23.5161L50.7807 3.83231C46.5347 1.45275 41.3549 1.46092 37.1165 3.85385Z" fill="#FC5103" stroke="#FC5103" stroke-width="3.48387" stroke-linejoin="round"/>
<path d="M13 5C13 3.89543 13.8954 3 15 3H18C19.1046 3 20 3.89543 20 5V16H13V5Z" fill="#FC5103"/>
<path d="M108 8C108 6.89543 108.895 6 110 6H113C114.105 6 115 6.89543 115 8V19H108V8Z" fill="#FC5103"/>
<path d="M127.71 27L92.7871 7.34496C88.5297 4.94885 83.3286 4.95707 79.0788 7.36662L67.6129 13.8676L70.0278 15.7001L80.3159 11.1547C83.891 9.5752 87.9651 9.56966 91.5445 11.1394L127.71 27Z" fill="#FC5103" stroke="#FC5103" stroke-width="3.48387" stroke-linejoin="round"/>
<path d="M19.1294 55.3837C19.1294 47.9444 8.14444 49.6855 8.14444 45.8234C8.14444 44.4305 9.1258 43.7657 10.4237 43.7973C11.8799 43.829 12.893 44.6837 12.9879 46.1083H18.8445C18.6229 41.8662 15.3622 39.4603 10.5187 39.4603C5.86515 39.4603 2.41455 41.8029 2.41455 46.0133C2.35124 53.8958 13.4628 51.6799 13.4628 55.7953C13.4628 57.0932 12.4498 57.8846 10.8669 57.8846C9.3474 57.8846 8.27107 57.0615 8.11278 55.3521H2.35124C2.50952 59.8473 6.24503 62.2216 11.0252 62.2216C16.2169 62.2216 19.1294 59.1192 19.1294 55.3837ZM22.3658 53.0411C22.3658 59.1825 26.3862 62.2216 31.5463 62.2216C36.6747 62.2216 40.98 59.1825 40.98 53.0411V39.7769H35.5667V53.0728C35.5667 55.7003 34.2054 57.2198 31.6412 57.2198C29.077 57.2198 27.7791 55.7003 27.7791 53.0728V39.7769H22.3658V53.0411ZM44.7813 62H50.1946V48.6408L55.1964 62H59.565L64.5352 48.6725V62H69.9485V39.7769H63.5855L57.4124 55.1621L51.176 39.7769H44.7813V62ZM73.8413 62H79.2546V48.6408L84.2564 62H88.625L93.5952 48.6725V62H99.0085V39.7769H92.6455L86.4724 55.1621L80.236 39.7769H73.8413V62ZM102.901 62H108.315V39.7769H102.901V62ZM111.035 44.1139H116.923V62H122.336V44.1139H128.224V39.7769H111.035V44.1139Z" fill="#222628"/>
<path d="M8.43198 63.7821C4.81823 63.7821 2.2886 66.3289 2.2886 69.9427C2.2886 73.5564 4.83543 76.086 8.44918 76.086C11.6327 76.086 13.6461 74.0038 14.2656 71.9216V69.1855H7.8641V71.3538H11.5983C11.1509 72.7132 10.1356 73.4876 8.67289 73.4876C6.55627 73.4876 5.28285 72.1797 5.28285 69.9427C5.28285 67.8432 6.53906 66.501 8.43198 66.501C9.53331 66.501 10.3593 66.9312 10.8067 67.74H14.0591C13.4224 65.262 11.323 63.7821 8.43198 63.7821ZM24.1383 76H27.2531L22.8821 63.9198H19.4749L15.104 76H18.1843L18.907 73.8662H23.4156L24.1383 76ZM22.6584 71.5947H19.6814L21.1613 67.1721L22.6584 71.5947ZM34.9676 67.8432C34.9676 68.7897 34.4514 69.3576 33.35 69.3576H31.526V66.3633H33.35C34.4514 66.3633 34.9676 66.9484 34.9676 67.8432ZM28.5833 63.9198V76H31.526V71.4398H32.2315L34.7439 76H38.0651L35.2774 71.2161C37.1359 70.6654 37.9619 69.2371 37.9619 67.7228C37.9619 65.6234 36.482 63.9198 33.5221 63.9198H28.5833ZM48.0519 76H51.1666L46.7957 63.9198H43.3884L39.0175 76H42.0978L42.8205 73.8662H47.3291L48.0519 76ZM46.572 71.5947H43.5949L45.0748 67.1721L46.572 71.5947ZM58.1412 63.7821C54.5275 63.7821 51.9978 66.3289 51.9978 69.9427C51.9978 73.5564 54.5447 76.086 58.1584 76.086C61.342 76.086 63.3553 74.0038 63.9748 71.9216V69.1855H57.5733V71.3538H61.3075C60.8601 72.7132 59.8448 73.4876 58.3821 73.4876C56.2655 73.4876 54.9921 72.1797 54.9921 69.9427C54.9921 67.8432 56.2483 66.501 58.1412 66.501C59.2425 66.501 60.0685 66.9312 60.5159 67.74H63.7683C63.1316 65.262 61.0322 63.7821 58.1412 63.7821ZM73.0044 63.9198H65.6048V76H73.0044V73.6425H68.5474V70.9924H72.4881V68.7209H68.5474V66.2773H73.0044V63.9198ZM83.0872 63.9198H78.5614V76H83.0872C86.9419 76 89.4199 73.5392 89.4199 69.9599C89.4199 66.3633 86.9419 63.9198 83.0872 63.9198ZM81.5041 73.4532V66.4322H82.8979C85.1178 66.4322 86.4256 67.74 86.4256 69.9599C86.4256 72.1797 85.1178 73.4532 82.8979 73.4532H81.5041ZM102.955 69.9255C102.955 66.2945 100.219 63.7477 96.7775 63.7477C93.3531 63.7477 90.5653 66.2945 90.5653 69.9255C90.5653 73.5564 93.3531 76.1205 96.7775 76.1205C100.202 76.1205 102.955 73.5564 102.955 69.9255ZM93.5768 69.9255C93.5768 67.7744 94.8158 66.415 96.7775 66.415C98.7049 66.415 99.9611 67.7744 99.9611 69.9255C99.9611 72.0421 98.7049 73.436 96.7775 73.436C94.8158 73.436 93.5768 72.0421 93.5768 69.9255ZM116.483 69.9255C116.483 66.2945 113.747 63.7477 110.306 63.7477C106.881 63.7477 104.093 66.2945 104.093 69.9255C104.093 73.5564 106.881 76.1205 110.306 76.1205C113.73 76.1205 116.483 73.5564 116.483 69.9255ZM107.105 69.9255C107.105 67.7744 108.344 66.415 110.306 66.415C112.233 66.415 113.489 67.7744 113.489 69.9255C113.489 72.0421 112.233 73.436 110.306 73.436C108.344 73.436 107.105 72.0421 107.105 69.9255ZM124.505 67.8432C124.505 68.7897 123.988 69.3576 122.887 69.3576H121.063V66.3633H122.887C123.988 66.3633 124.505 66.9484 124.505 67.8432ZM118.12 63.9198V76H121.063V71.4398H121.769L124.281 76H127.602L124.814 71.2161C126.673 70.6654 127.499 69.2371 127.499 67.7228C127.499 65.6234 126.019 63.9198 123.059 63.9198H118.12Z" fill="#222628"/>
</svg>
