<svg width="67" height="34" viewBox="0 0 67 34" fill="none" xmlns="http://www.w3.org/2000/svg">
<g opacity="0.25">
<path d="M54.3326 18.7121L55.4072 18.4634C55.4426 18.4556 55.4778 18.4462 55.5124 18.4352C55.8091 18.3555 56.0632 18.1637 56.2213 17.9003C56.3793 17.6369 56.429 17.3225 56.3598 17.0232L56.3548 17.0041C56.3195 16.8607 56.2576 16.7252 56.1724 16.6045C56.052 16.452 55.903 16.3244 55.7338 16.2289C55.5345 16.1152 55.326 16.0187 55.1103 15.9404L53.933 15.5109C53.2721 15.2655 52.6105 15.0258 51.9431 14.792C51.5111 14.6386 51.1446 14.5035 50.8254 14.4057C50.7657 14.3866 50.6994 14.3684 50.6455 14.3501C50.2599 14.2315 49.9905 14.1826 49.7608 14.1818C49.608 14.1762 49.4558 14.2039 49.3147 14.2631C49.1674 14.3264 49.0352 14.4202 48.9267 14.5383C48.8728 14.5998 48.8222 14.664 48.775 14.7307C48.683 14.8719 48.6071 15.0229 48.5486 15.1809C48.3302 15.8271 48.2214 16.5053 48.2269 17.1874C48.2319 17.8043 48.2485 18.5952 48.5876 19.1317C48.6688 19.2693 48.7783 19.3887 48.9093 19.4808C49.1506 19.6474 49.3943 19.6698 49.6489 19.688C50.0278 19.7146 50.3951 19.6217 50.7616 19.5371L54.3301 18.7113L54.3326 18.7121ZM66.3143 13.0061C66.021 12.3907 65.6267 11.8288 65.1477 11.3437C65.0856 11.2823 65.0191 11.2255 64.9487 11.1737C64.884 11.1249 64.8167 11.0795 64.7473 11.0377C64.6754 10.9987 64.6015 10.9636 64.5259 10.9324C64.377 10.8738 64.2173 10.8472 64.0574 10.8545C63.9046 10.8638 63.7555 10.9059 63.6205 10.9781C63.4157 11.08 63.1943 11.2434 62.8991 11.517C62.8585 11.5584 62.8079 11.604 62.7615 11.6463C62.5186 11.8752 62.2474 12.1579 61.9257 12.4862C61.4283 12.9887 60.9391 13.4945 60.4524 14.0052L59.5818 14.9089C59.4226 15.0748 59.2775 15.2522 59.1482 15.4421C59.0379 15.6021 58.96 15.782 58.9185 15.9727C58.894 16.1185 58.8974 16.2676 58.9285 16.4122L58.9334 16.4312C59.0024 16.7301 59.1847 16.9906 59.4419 17.1578C59.6991 17.325 60.0111 17.3858 60.3123 17.3275C60.3595 17.3209 60.3968 17.3126 60.4201 17.3076L65.0632 16.2331C65.4296 16.1485 65.8011 16.0705 66.1294 15.8799C66.35 15.7513 66.5597 15.6245 66.7032 15.3691C66.7803 15.2284 66.8269 15.073 66.84 14.9131C66.9113 14.2805 66.5805 13.5616 66.3143 13.0061ZM58.0032 14.9612C58.3398 14.5383 58.3381 13.9082 58.368 13.3925C58.4691 11.6712 58.5752 9.94993 58.659 8.22701C58.6922 7.57531 58.7618 6.93191 58.722 6.27441C58.6905 5.73216 58.6863 5.10949 58.3439 4.66425C57.7387 3.87989 56.4502 3.94456 55.5713 4.06728C55.3019 4.10459 55.0324 4.15433 54.7646 4.21901C54.4968 4.28368 54.2323 4.35332 53.9728 4.43707C53.1295 4.71317 51.9431 5.22059 51.7424 6.19316C51.6296 6.74287 51.8983 7.30419 52.1064 7.80664C52.3585 8.41439 52.7034 8.96161 53.0184 9.53371C53.8484 11.0452 54.6949 12.5459 55.539 14.0491C55.791 14.4969 56.0655 15.0656 56.553 15.2978C56.5853 15.3119 56.6177 15.3243 56.6517 15.3351C56.8697 15.418 57.1077 15.4346 57.3357 15.3807L57.3772 15.3716C57.5869 15.3136 57.7768 15.2 57.926 15.0408C57.9534 15.0159 57.9791 14.9894 58.0032 14.9612ZM57.6019 19.5703C57.4705 19.3854 57.2841 19.2468 57.0691 19.1744C56.8542 19.102 56.6218 19.0995 56.4054 19.1673C56.354 19.1839 56.3051 19.2046 56.2562 19.2287C56.1824 19.2669 56.1119 19.3113 56.0456 19.3614C55.8524 19.504 55.6891 19.6905 55.5415 19.8771C55.5033 19.9252 55.4693 19.9882 55.4246 20.0296L54.6783 21.0577C54.2547 21.6332 53.8368 22.2102 53.4231 22.7964C53.1528 23.1753 52.9198 23.4946 52.7349 23.7773C52.7001 23.8312 52.6636 23.8909 52.6304 23.9381C52.409 24.2806 52.2838 24.5301 52.22 24.7523C52.1716 24.9003 52.1563 25.0571 52.1752 25.2117C52.1959 25.3725 52.2498 25.5267 52.3344 25.6652C52.3792 25.7349 52.4273 25.802 52.4787 25.8667C52.5906 25.9954 52.7166 26.111 52.8543 26.2116C53.37 26.5706 53.9346 26.8285 54.5291 27.0275C55.0232 27.1912 55.5367 27.289 56.0564 27.3185C56.1442 27.3226 56.233 27.321 56.3217 27.3127C56.4032 27.3056 56.4843 27.2943 56.5646 27.2787C56.6451 27.2597 56.7245 27.2365 56.8026 27.209C56.9522 27.156 57.0882 27.0706 57.201 26.959C57.3138 26.8473 57.4005 26.7122 57.4551 26.5632C57.5413 26.3476 57.5977 26.074 57.635 25.6694C57.6383 25.6113 57.6466 25.5417 57.6524 25.4787C57.6814 25.142 57.6955 24.7465 57.7171 24.2814C57.7528 23.5667 57.7818 22.8553 57.8042 22.1406L57.8514 20.872C57.8622 20.5785 57.8531 20.2552 57.7718 19.9641C57.7362 19.8246 57.6785 19.6917 57.601 19.5703H57.6019ZM66.0341 21.5544C65.8782 21.3836 65.6576 21.2128 65.3086 21.0022C65.2588 20.974 65.1991 20.9367 65.1453 20.9044C64.8551 20.7302 64.5052 20.5462 64.0972 20.324C63.4706 19.9814 62.8409 19.6442 62.2085 19.3124L61.0892 18.7188C61.0311 18.7022 60.9723 18.6607 60.9175 18.6342C60.7024 18.5241 60.4739 18.4424 60.2376 18.3913C60.1562 18.3759 60.0735 18.3676 59.9906 18.3664C59.9371 18.3648 59.8835 18.3679 59.8305 18.3755C59.6066 18.41 59.3993 18.5144 59.2382 18.6737C59.0771 18.833 58.9704 19.0392 58.9334 19.2627C58.9169 19.4053 58.9218 19.5496 58.9492 19.6897C59.0039 19.9882 59.1374 20.2825 59.275 20.5404L59.8728 21.6605C60.2053 22.2923 60.5428 22.9208 60.8877 23.5468C61.1107 23.9547 61.2956 24.3046 61.4689 24.594C61.5021 24.6487 61.5394 24.7076 61.5684 24.7573C61.779 25.1055 61.949 25.3253 62.1206 25.482C62.2325 25.5898 62.366 25.6718 62.5128 25.7224C62.6662 25.773 62.8295 25.7912 62.9903 25.7755C63.0723 25.7655 63.1537 25.7511 63.2341 25.7324C63.3137 25.7116 63.3916 25.6859 63.4688 25.6569C63.5517 25.6254 63.6321 25.5881 63.7092 25.545C64.1635 25.2901 64.5822 24.9765 64.9545 24.6122C65.4014 24.1728 65.7961 23.6927 66.1029 23.1447C66.1458 23.0668 66.1829 22.9859 66.214 22.9026C66.243 22.826 66.2679 22.7479 66.2886 22.6687C66.3069 22.5875 66.321 22.5062 66.3301 22.4242C66.3455 22.2629 66.3269 22.1002 66.2753 21.9466C66.2248 21.7998 66.1428 21.666 66.0349 21.5544H66.0341Z" fill="white"/>
<path fill-rule="evenodd" clip-rule="evenodd" d="M27.4938 10.6588C27.4938 9.73602 28.2466 8.98151 29.1537 8.98151C30.0491 8.98151 30.7746 9.73602 30.8136 10.6721V23.764C30.8136 24.6877 30.0616 25.4413 29.1537 25.4413C28.9342 25.4414 28.7169 25.3979 28.5144 25.3133C28.3119 25.2288 28.1281 25.105 27.9737 24.949C27.8194 24.793 27.6975 24.608 27.6151 24.4046C27.5327 24.2012 27.4915 23.9835 27.4938 23.764V10.6597V10.6588ZM25.9516 18.7461C25.9383 19.0057 25.8736 19.4866 25.537 19.8381C25.173 20.2154 24.6805 20.3057 24.3953 20.3057C23.2088 20.3124 22.0223 20.3157 20.8359 20.319C19.6502 20.3223 18.4629 20.3256 17.2764 20.3323C17.3809 20.6573 17.5882 21.1514 18.055 21.6058C18.3402 21.8794 18.6121 22.0353 18.729 22.1C18.8717 22.1912 19.3642 22.4515 19.9736 22.4515C20.6219 22.4515 21.1924 22.2434 21.7504 21.9574L21.7968 21.9325C22.184 21.7327 22.5845 21.5254 23.0073 21.4499C23.4227 21.3853 23.8638 21.4632 24.188 21.7484C24.5769 22.0875 24.7328 22.5817 24.5901 23.0883C24.421 23.6604 23.9418 24.1545 23.436 24.4539C23.1508 24.6222 22.839 24.7656 22.5281 24.8825C21.7255 25.167 20.8769 25.2991 20.0258 25.2722C19.8185 25.2722 19.598 25.2722 19.3774 25.2473C19.1459 25.2175 18.9164 25.1738 18.6901 25.1163C18.3323 25.0387 17.9843 24.9211 17.6528 24.7656C17.3209 24.6185 17.0038 24.44 16.706 24.2325C16.409 24.019 16.1315 23.7795 15.8769 23.5169C15.6234 23.2514 15.3931 22.9645 15.1887 22.6596C14.4889 21.5934 14.1647 20.28 14.2294 19.0057C14.2816 17.7578 14.6962 16.51 15.4482 15.4951C15.5281 15.3762 15.6168 15.2634 15.7135 15.1577C15.7517 15.1137 15.789 15.0706 15.8246 15.0275C16.7532 13.8916 17.9944 13.5326 18.506 13.3842L18.5342 13.3759C19.5727 13.081 20.6729 13.081 21.7114 13.3759C21.9577 13.4414 23.3448 13.87 24.421 15.0275C24.4732 15.0797 24.6159 15.2481 24.7974 15.4951C25.2578 16.122 25.5959 16.83 25.794 17.582L25.7957 17.5887C25.8736 17.8747 25.9516 18.2644 25.9516 18.7461ZM18.3402 16.6004C17.828 17.0169 17.4715 17.5942 17.3287 18.2387H22.9816C22.8291 17.5951 22.4693 17.0195 21.9577 16.6004C21.4421 16.1868 20.8028 15.9579 20.1419 15.9503C19.8956 15.9503 19.0922 15.9893 18.3402 16.6004ZM39.8378 13.1553C38.3603 13.1553 37.0113 13.8186 36.052 14.8973V14.8584C36.0399 14.4199 35.8541 14.0042 35.5355 13.7027C35.2169 13.4012 34.7916 13.2386 34.3531 13.2507C33.9146 13.2628 33.4989 13.4486 33.1974 13.7672C32.8959 14.0858 32.7334 14.5111 32.7454 14.9496V27.4445C32.7454 28.3673 33.485 29.1077 34.4054 29.1077C35.3257 29.1077 36.0653 28.3673 36.0653 27.4437V23.5435C37.0246 24.6097 38.3603 25.2855 39.8511 25.2855C42.8202 25.2855 45.2321 22.5941 45.2321 19.2403C45.2188 15.8857 42.8069 13.1545 39.8378 13.1545V13.1553ZM39.1115 22.5684C37.4267 22.5684 36.052 21.0992 36.052 19.266C36.052 17.4195 37.4134 15.9503 39.1115 15.9503C40.7979 15.9503 42.1718 17.4195 42.1718 19.266C42.1594 21.0984 40.7979 22.5684 39.1123 22.5684H39.1115ZM11.7403 20.1109L11.1956 21.3073C10.9494 21.8272 10.7031 22.3603 10.4693 22.8934C10.3947 23.0568 10.32 23.2234 10.2438 23.3934C9.20735 25.6984 7.97776 28.4353 5.29636 29.0174C3.99961 29.3034 2.04121 28.9129 1.31572 27.6908C0.589408 26.4554 1.66561 25.0384 3.05274 25.3634C3.27163 25.4132 3.48721 25.5201 3.70361 25.6279C4.06511 25.8078 4.43241 25.9911 4.82956 25.9098C5.20516 25.8451 5.43897 25.5715 5.73663 25.2208C6.05612 24.8483 6.28663 24.408 6.41071 23.9332C6.40374 23.9182 6.39737 23.903 6.39164 23.8876C6.38587 23.8724 6.37951 23.8575 6.37257 23.8428C6.03429 23.2127 5.73994 22.6497 5.49369 22.1796C5.33284 21.8728 5.19355 21.6058 5.07581 21.3853L4.50952 20.3124C4.09496 19.5264 4.02697 19.397 3.84373 19.0579C3.44072 18.2968 3.01716 17.5467 2.57351 16.8085C2.09262 16.0026 1.60094 15.1054 2.00224 14.1561C2.15324 13.7881 2.43701 13.4902 2.79729 13.3216C3.15757 13.153 3.56806 13.1259 3.94737 13.2457C4.7823 13.4994 5.15127 14.2937 5.49784 15.0366C5.56002 15.1701 5.62221 15.3028 5.68522 15.4305C6.2424 16.5357 6.78713 17.6409 7.33187 18.7453C7.37996 18.8556 7.45292 19.0057 7.54164 19.1872C7.62123 19.3497 7.71327 19.538 7.8111 19.7469C7.86251 19.8547 7.9106 19.9558 7.95537 20.047C8.01175 20.1631 8.06067 20.2643 8.09632 20.3455C8.34921 19.7146 8.60541 19.0869 8.86161 18.4601C9.11781 17.8324 9.37401 17.2048 9.62689 16.5747C9.63353 16.539 9.69405 16.4047 9.78443 16.2016C9.92024 15.9016 10.0513 15.5995 10.1774 15.2953C10.5141 14.4753 10.9187 13.4895 11.8183 13.22C12.1372 13.1278 12.477 13.1371 12.7905 13.2465C13.1039 13.356 13.3756 13.5603 13.5677 13.8311C13.7634 14.1047 13.8413 14.4164 13.8538 14.7282C13.8646 15.418 13.5304 16.1584 13.2444 16.7944C13.1747 16.9494 13.1084 17.0978 13.0495 17.238L13.0155 17.3142C12.9359 17.4917 12.7212 17.9759 12.3497 18.7718C12.2154 19.0571 12.0869 19.3431 11.9567 19.6317C11.8854 19.79 11.8141 19.95 11.7403 20.1109Z" fill="white"/>
</g>
</svg>
